<?xml version="1.0" standalone="no"?><!DOCTYPE svg PUBLIC "-//W3C//DTD SVG 1.1//EN" "http://www.w3.org/Graphics/SVG/1.1/DTD/svg11.dtd"><svg t="1563084312623" class="icon" viewBox="0 0 1025 1024" version="1.1" xmlns="http://www.w3.org/2000/svg" p-id="1178" xmlns:xlink="http://www.w3.org/1999/xlink" width="200.1953125" height="200"><defs><style type="text/css"></style></defs><path d="M1013.53916 962.397276l-241.761634-241.761635c-13.947787-13.947787-37.194098-13.947787-51.141885 0v4.649263C650.896708 795.023837 553.262202 836.867196 446.329171 836.867196 223.164586 836.867196 46.492622 660.195233 46.492622 441.679909S223.164586 46.492622 441.679909 46.492622 836.867196 223.164586 836.867196 441.679909c0 65.089671-13.947787 125.530079-41.843359 181.321226v9.298524c0 13.947787 9.298524 23.246311 23.246311 23.246311 9.298524 0 13.947787-4.649262 18.597048-9.298524v-4.649262c27.895573-60.440409 46.492622-125.530079 46.492622-195.269013C883.359818 199.918275 683.441544 0 441.679909 0S0 199.918275 0 441.679909 199.918275 883.359818 441.679909 883.359818c111.582293 0 209.216799-41.84336 288.254257-106.93303l237.112372 237.112372c13.947787 13.947787 37.194098 13.947787 51.141884 0 9.298524-13.947787 9.298524-37.194098-4.649262-51.141884z" fill="#e6e6e6" p-id="1179"></path></svg>